<svg id="wave" style="transform:rotate(180deg); transition: 0.3s" viewBox="0 0 1440 490" version="1.1" xmlns="http://www.w3.org/2000/svg"><defs><linearGradient id="sw-gradient-0" x1="0" x2="0" y1="1" y2="0"><stop stop-color="rgba(224, 232, 255, 1)" offset="0%"></stop><stop stop-color="rgba(214, 225, 255, 1)" offset="100%"></stop></linearGradient></defs><path style="transform:translate(0, 0px); opacity:1" fill="url(#sw-gradient-0)" d="M0,49L120,49C240,49,480,49,720,65.3C960,82,1200,114,1440,106.2C1680,98,1920,49,2160,57.2C2400,65,2640,131,2880,147C3120,163,3360,131,3600,147C3840,163,4080,229,4320,228.7C4560,229,4800,163,5040,179.7C5280,196,5520,294,5760,285.8C6000,278,6240,163,6480,147C6720,131,6960,212,7200,277.7C7440,343,7680,392,7920,375.7C8160,359,8400,278,8640,253.2C8880,229,9120,261,9360,245C9600,229,9840,163,10080,130.7C10320,98,10560,98,10800,81.7C11040,65,11280,33,11520,40.8C11760,49,12000,98,12240,171.5C12480,245,12720,343,12960,392C13200,441,13440,441,13680,367.5C13920,294,14160,147,14400,106.2C14640,65,14880,131,15120,179.7C15360,229,15600,261,15840,294C16080,327,16320,359,16560,310.3C16800,261,17040,131,17160,65.3L17280,0L17280,490L17160,490C17040,490,16800,490,16560,490C16320,490,16080,490,15840,490C15600,490,15360,490,15120,490C14880,490,14640,490,14400,490C14160,490,13920,490,13680,490C13440,490,13200,490,12960,490C12720,490,12480,490,12240,490C12000,490,11760,490,11520,490C11280,490,11040,490,10800,490C10560,490,10320,490,10080,490C9840,490,9600,490,9360,490C9120,490,8880,490,8640,490C8400,490,8160,490,7920,490C7680,490,7440,490,7200,490C6960,490,6720,490,6480,490C6240,490,6000,490,5760,490C5520,490,5280,490,5040,490C4800,490,4560,490,4320,490C4080,490,3840,490,3600,490C3360,490,3120,490,2880,490C2640,490,2400,490,2160,490C1920,490,1680,490,1440,490C1200,490,960,490,720,490C480,490,240,490,120,490L0,490Z"></path></svg>